# This file uses centimeters as units for non-parametric coordinates.

# mtllib model-3.mtl

g default
v -0.569998 -2.277340 0.555588
v 0.429411 -2.304113 0.533997
v -0.543007 -1.277753 0.565467
v 0.456402 -1.304526 0.543877
v -0.564324 -1.267298 -0.434251
v 0.435084 -1.294070 -0.455841
v -0.591315 -2.266884 -0.444130
v 0.408094 -2.293657 -0.465721
v -0.367502 -0.929515 0.353871
v 0.290815 -0.947150 0.339649
v 0.278512 -0.941116 -0.237316
v -0.379805 -0.923481 -0.223094
v -0.275872 1.675407 0.239832
v 0.382444 1.657772 0.225610
v 0.376080 1.660893 -0.072852
v -0.282236 1.678528 -0.058630
v -0.929513 2.162275 1.867145
v 1.082254 2.108384 1.823684
v 1.007341 2.145128 -1.689531
v -1.004427 2.199019 -1.646070
v -0.878789 4.040842 1.885711
v 1.132979 3.986950 1.842250
v 1.058065 4.023694 -1.670965
v -0.953703 4.077585 -1.627505
v -0.477965 4.384270 1.268270
v 0.724835 4.352050 1.242285
v 0.676028 4.375990 -1.046648
v -0.526773 4.408210 -1.020664
v -0.008322 4.380507 0.365979
v 0.217163 4.374466 0.361107
v 0.206384 4.379753 -0.144357
v -0.019101 4.385794 -0.139486
v 0.023206 4.498344 0.210298
v 0.185297 4.494001 0.206797
v 0.181178 4.496021 0.013637
v 0.019087 4.500363 0.017139
v -0.452305 2.475388 2.860527
v 0.665801 2.445436 2.836372
v 0.698405 3.652924 2.848305
v -0.419701 3.682876 2.872460
v -0.569853 2.533044 -2.652125
v 0.548253 2.503092 -2.676280
v -0.537249 3.740532 -2.640192
v 0.580856 3.710581 -2.664347
v -0.701568 2.324059 1.863977
v 0.863369 2.282138 1.830169
v 0.085431 2.470868 1.848731
v 0.085431 2.470868 1.848731
v 0.905034 3.825165 1.845419
v 0.660786 3.059637 1.842620
v 0.660786 3.059637 1.842620
v -0.659904 3.867087 1.879227
v 0.118035 3.678356 1.860664
v 0.118035 3.678356 1.860664
v -0.457320 3.089589 1.866775
v -0.457320 3.089589 1.866775
v -0.776481 2.360804 -1.649239
v 0.788455 2.318882 -1.683046
v 0.010517 2.507613 -1.664484
v 0.010517 2.507613 -1.664484
v -0.734817 3.903830 -1.633988
v -0.532234 3.126332 -1.646440
v -0.532234 3.126332 -1.646440
v 0.830120 3.861909 -1.667797
v 0.043121 3.715101 -1.652551
v 0.043121 3.715101 -1.652551
v 0.585872 3.096380 -1.670595
v 0.585872 3.096380 -1.670595
v -0.300649 -2.644228 -0.162005
v 0.110098 -2.655231 -0.170879
v 0.118958 -2.659577 0.244630
v -0.291789 -2.648574 0.253504
vt 0.375000 0.000000
vt 0.625000 0.000000
vt 0.375000 0.250000
vt 0.625000 0.250000
vt 0.375000 0.500000
vt 0.625000 0.500000
vt 0.375000 0.750000
vt 0.625000 0.750000
vt 0.375000 1.000000
vt 0.625000 1.000000
vt 0.875000 0.000000
vt 0.875000 0.250000
vt 0.125000 0.000000
vt 0.125000 0.250000
vt 0.375000 0.250000
vt 0.625000 0.250000
vt 0.625000 0.500000
vt 0.375000 0.500000
vt 0.375000 0.250000
vt 0.625000 0.250000
vt 0.625000 0.500000
vt 0.375000 0.500000
vt 0.375000 0.250000
vt 0.625000 0.250000
vt 0.625000 0.500000
vt 0.375000 0.500000
vt 0.375000 0.250000
vt 0.625000 0.250000
vt 0.625000 0.500000
vt 0.375000 0.500000
vt 0.375000 0.250000
vt 0.625000 0.250000
vt 0.625000 0.500000
vt 0.375000 0.500000
vt 0.375000 0.250000
vt 0.625000 0.250000
vt 0.625000 0.500000
vt 0.375000 0.500000
vt 0.375000 0.250000
vt 0.625000 0.250000
vt 0.625000 0.500000
vt 0.375000 0.500000
vt 0.375000 0.250000
vt 0.625000 0.250000
vt 0.625000 0.250000
vt 0.375000 0.250000
vt 0.625000 0.500000
vt 0.375000 0.500000
vt 0.375000 0.500000
vt 0.625000 0.500000
vt 0.375000 0.250000
vt 0.625000 0.250000
vt 0.458333 0.250000
vt 0.541667 0.250000
vt 0.625000 0.250000
vt 0.625000 0.250000
vt 0.625000 0.250000
vt 0.375000 0.250000
vt 0.458333 0.250000
vt 0.541667 0.250000
vt 0.375000 0.250000
vt 0.375000 0.250000
vt 0.375000 0.500000
vt 0.625000 0.500000
vt 0.458333 0.500000
vt 0.541667 0.500000
vt 0.375000 0.500000
vt 0.375000 0.500000
vt 0.375000 0.500000
vt 0.625000 0.500000
vt 0.458333 0.500000
vt 0.541667 0.500000
vt 0.625000 0.500000
vt 0.625000 0.500000
vt 0.375000 0.750000
vt 0.625000 0.750000
vt 0.625000 1.000000
vt 0.375000 1.000000
vn 0.018134 -0.123248 0.992210
vn 0.018134 -0.123248 0.992210
vn 0.021317 -0.010456 0.999718
vn 0.021317 -0.010456 0.999718
vn 0.026990 0.999587 0.009877
vn 0.026990 0.999587 0.009877
vn 0.026990 0.999587 0.009877
vn 0.026990 0.999587 0.009877
vn -0.021317 0.010456 -0.999718
vn -0.021317 0.010456 -0.999718
vn -0.024228 -0.102470 -0.994441
vn -0.024228 -0.102469 -0.994441
vn -0.026990 -0.999587 -0.009879
vn -0.026990 -0.999587 -0.009879
vn -0.026990 -0.999587 -0.009879
vn -0.026990 -0.999587 -0.009879
vn 0.989734 -0.141126 -0.022581
vn 0.989734 -0.141126 -0.022581
vn 0.999408 -0.026772 -0.021591
vn 0.999408 -0.026772 -0.021591
vn -0.995919 -0.087934 0.020317
vn -0.995919 -0.087934 0.020317
vn -0.999408 0.026772 0.021591
vn -0.999408 0.026772 0.021591
vn 0.032191 0.507107 0.861282
vn 0.032191 0.507107 0.861282
vn 0.032191 0.507107 0.861282
vn 0.032191 0.507107 0.861282
vn 0.910495 0.413244 -0.015093
vn 0.910495 0.413244 -0.015093
vn 0.996050 0.086438 -0.020335
vn 0.996050 0.086438 -0.020335
vn -0.004322 0.525016 -0.851082
vn -0.004322 0.525016 -0.851082
vn -0.004322 0.525016 -0.851082
vn -0.004322 0.525016 -0.851082
vn -0.886879 0.461392 0.023737
vn -0.886879 0.461392 0.023737
vn -0.987918 0.153309 0.022669
vn -0.987918 0.153309 0.022669
vn 0.022728 0.042927 0.998820
vn 0.022728 0.042927 0.998820
vn 0.022728 0.042927 0.998820
vn 0.022728 0.042927 0.998820
vn 0.999113 -0.036093 -0.021682
vn 0.999113 -0.036093 -0.021682
vn -0.019846 0.063809 -0.997765
vn -0.019846 0.063809 -0.997765
vn -0.019846 0.063809 -0.997765
vn -0.019846 0.063809 -0.997765
vn -0.999113 0.036094 0.021682
vn -0.999113 0.036094 0.021682
vn -0.019683 -0.959999 0.279312
vn -0.019683 -0.959999 0.279312
vn -0.019683 -0.959999 0.279312
vn -0.019682 -0.959999 0.279312
vn 0.574420 -0.818296 -0.020807
vn 0.574420 -0.818296 -0.020807
vn 0.574420 -0.818296 -0.020807
vn 0.574420 -0.818296 -0.020807
vn -0.031998 -0.953958 -0.298228
vn -0.031998 -0.953958 -0.298228
vn -0.031998 -0.953958 -0.298228
vn -0.031998 -0.953958 -0.298228
vn -0.590676 -0.806898 0.004156
vn -0.590676 -0.806898 0.004156
vn -0.590676 -0.806898 0.004156
vn -0.590676 -0.806898 0.004156
vn 0.703401 0.606211 0.371126
vn 0.703401 0.606211 0.371126
vn 0.703401 0.606211 0.371126
vn 0.999408 -0.026772 -0.021591
vn 0.999408 -0.026772 -0.021591
vn 0.998586 0.048929 -0.020781
vn 0.998586 0.048929 -0.020781
vn 0.687214 0.614151 -0.388015
vn 0.687214 0.614151 -0.388015
vn 0.687214 0.614151 -0.388015
vn -0.999408 0.026772 0.021591
vn -0.999408 0.026772 0.021591
vn -0.994502 0.102320 0.022276
vn -0.994502 0.102320 0.022276
vn 0.033999 0.863870 0.502566
vn 0.033999 0.863870 0.502566
vn 0.033999 0.863870 0.502566
vn 0.033999 0.863870 0.502566
vn 0.672059 0.740469 -0.006586
vn 0.672059 0.740469 -0.006586
vn 0.012932 0.874203 -0.485388
vn 0.012932 0.874203 -0.485388
vn 0.012932 0.874203 -0.485388
vn 0.012932 0.874203 -0.485388
vn -0.631128 0.775379 0.021567
vn -0.631128 0.775379 0.021567
vn 0.026991 0.999587 0.009879
vn 0.026991 0.999587 0.009879
vn 0.026991 0.999587 0.009879
vn 0.026991 0.999587 0.009879
vn 0.026990 0.999587 0.009879
vn 0.026990 0.999587 0.009879
vn 0.026990 0.999587 0.009879
vn 0.026990 0.999587 0.009879
vn 0.026991 0.999587 0.009879
vn 0.026991 0.999587 0.009879
vn 0.026991 0.999587 0.009879
vn 0.026991 0.999587 0.009879
vn 0.026990 0.999587 0.009879
vn 0.026990 0.999587 0.009879
vn 0.026990 0.999587 0.009879
vn 0.026990 0.999587 0.009879
vn 0.034384 0.793512 0.607583
vn 0.034384 0.793512 0.607583
vn 0.034384 0.793511 0.607583
vn 0.034384 0.793512 0.607583
vn 0.971710 0.235472 -0.018257
vn 0.971710 0.235472 -0.018257
vn 0.971710 0.235472 -0.018257
vn 0.971710 0.235472 -0.018257
vn 0.008808 0.806056 -0.591774
vn 0.008808 0.806055 -0.591774
vn 0.008808 0.806055 -0.591774
vn 0.008808 0.806056 -0.591774
vn -0.957597 0.287158 0.023422
vn -0.957597 0.287158 0.023422
vn -0.957597 0.287158 0.023422
vn -0.957597 0.287158 0.023422
vn 0.091959 -0.398185 0.912684
vn 0.184332 -0.977522 0.102333
vn 0.184332 -0.977522 0.102333
vn 0.354278 0.077385 0.931933
vn 0.957621 0.247147 0.147919
vn 0.957621 0.247147 0.147919
vn -0.052797 0.378975 0.923900
vn -0.179368 0.975087 0.130511
vn -0.179368 0.975087 0.130511
vn -0.935746 0.297867 0.188823
vn -0.309081 0.095156 0.946263
vn -0.935746 0.297867 0.188823
vn 0.179367 -0.975087 -0.130511
vn 0.052797 -0.378977 -0.923899
vn 0.179367 -0.975087 -0.130511
vn -0.349089 0.114780 -0.930034
vn -0.942811 0.301332 -0.142498
vn -0.942811 0.301332 -0.142498
vn 0.073662 0.393747 -0.916263
vn 0.231789 0.966375 -0.111323
vn 0.231789 0.966375 -0.111323
vn 0.950556 0.250612 -0.183402
vn 0.314269 0.097009 -0.944364
vn 0.950556 0.250612 -0.183402
vn -0.231790 -0.966375 0.111323
vn -0.073662 -0.393749 0.916262
vn -0.231790 -0.966375 0.111323
vn -0.653281 0.642554 0.400436
vn -0.653281 0.642554 0.400435
vn -0.653281 0.642554 0.400436
vn -0.314269 -0.097009 0.944364
vn -0.950556 -0.250612 0.183402
vn -0.950556 -0.250612 0.183402
vn 0.021317 -0.010455 0.999718
vn 0.021317 -0.010455 0.999718
vn 0.942811 -0.301332 0.142498
vn 0.349089 -0.114780 0.930034
vn 0.942811 -0.301332 0.142498
vn -0.687214 -0.614151 0.388015
vn -0.687214 -0.614151 0.388015
vn -0.687214 -0.614151 0.388015
vn 0.669468 -0.650495 0.358706
vn 0.669468 -0.650495 0.358706
vn 0.669468 -0.650495 0.358706
vn 0.021317 -0.010456 0.999718
vn 0.021317 -0.010456 0.999718
vn 0.236755 0.963940 0.121521
vn 0.112824 0.374538 0.920322
vn 0.236755 0.963940 0.121521
vn 0.021317 -0.010456 0.999718
vn 0.021317 -0.010456 0.999718
vn 0.021317 -0.010456 0.999718
vn 0.021317 -0.010456 0.999718
vn -0.957621 -0.247147 -0.147919
vn -0.354278 -0.077385 -0.931933
vn -0.957621 -0.247147 -0.147919
vn -0.669468 0.650494 -0.358706
vn -0.669468 0.650494 -0.358706
vn -0.669468 0.650494 -0.358706
vn -0.112824 -0.374540 -0.920321
vn -0.236755 -0.963940 -0.121521
vn -0.236755 -0.963940 -0.121521
vn 0.653282 -0.642554 -0.400435
vn 0.653282 -0.642554 -0.400435
vn 0.653282 -0.642554 -0.400435
vn 0.309080 -0.095155 -0.946264
vn 0.935746 -0.297866 -0.188823
vn 0.935746 -0.297866 -0.188823
vn -0.021317 0.010456 -0.999718
vn -0.021317 0.010456 -0.999718
vn -0.021316 0.010456 -0.999718
vn -0.021316 0.010456 -0.999718
vn -0.184331 0.977522 -0.102333
vn -0.091959 0.398183 -0.912685
vn -0.184331 0.977522 -0.102333
vn -0.703401 -0.606212 -0.371125
vn -0.703401 -0.606212 -0.371125
vn -0.703401 -0.606212 -0.371125
vn -0.021317 0.010454 -0.999718
vn -0.021317 0.010454 -0.999718
vn -0.021318 0.010456 -0.999718
vn -0.021318 0.010456 -0.999718
vn -0.033493 -0.614885 -0.787905
vn -0.033493 -0.614885 -0.787905
vn 0.762193 -0.646941 -0.023019
vn 0.762193 -0.646941 -0.023019
vn -0.000154 -0.631238 0.775589
vn -0.000154 -0.631238 0.775589
vn -0.796003 -0.605200 0.010644
vn -0.796003 -0.605200 0.010644
s 1
g pCube2
usemtl initialShadingGroup
f 1/1/1 2/2/2 4/4/3 3/3/4
s off
f 33/39/5 34/40/6 35/41/7 36/42/8
s 2
f 5/5/9 6/6/10 8/8/11 7/7/12
s off
f 69/75/13 70/76/14 71/77/15 72/78/16
s 3
f 2/2/17 8/11/18 6/12/19 4/4/20
s 4
f 7/13/21 1/1/22 3/3/23 5/14/24
s off
f 3/3/25 4/4/26 10/16/27 9/15/28
s 5
f 4/4/29 6/6/30 11/17/31 10/16/32
s off
f 6/6/33 5/5/34 12/18/35 11/17/36
s 6
f 5/5/37 3/3/38 9/15/39 12/18/40
s off
f 9/15/41 10/16/42 14/20/43 13/19/44
s 5
f 10/16/32 11/17/31 15/21/45 14/20/46
s off
f 11/17/47 12/18/48 16/22/49 15/21/50
s 6
f 12/18/40 9/15/39 13/19/51 16/22/52
s off
f 13/19/53 14/20/54 18/24/55 17/23/56
f 14/20/57 15/21/58 19/25/59 18/24/60
f 15/21/61 16/22/62 20/26/63 19/25/64
f 16/22/65 13/19/66 17/23/67 20/26/68
s 7
f 37/43/69 47/53/70 55/61/71
s 8
f 18/24/72 19/25/73 23/29/74 22/28/75
s 9
f 62/68/76 59/65/77 41/48/78
s 10
f 20/26/79 17/23/80 21/27/81 24/30/82
s off
f 21/27/83 22/28/84 26/32/85 25/31/86
s 8
f 22/28/75 23/29/74 27/33/87 26/32/88
s off
f 23/29/89 24/30/90 28/34/91 27/33/92
s 10
f 24/30/82 21/27/81 25/31/93 28/34/94
s off
f 25/31/95 26/32/96 30/36/97 29/35/98
f 26/32/99 27/33/100 31/37/101 30/36/102
f 27/33/103 28/34/104 32/38/105 31/37/106
f 28/34/107 25/31/108 29/35/109 32/38/110
f 29/35/111 30/36/112 34/40/113 33/39/114
f 30/36/115 31/37/116 35/41/117 34/40/118
f 31/37/119 32/38/120 36/42/121 35/41/122
f 32/38/123 29/35/124 33/39/125 36/42/126
s 11
f 45/51/127 47/53/128 37/43/129
s 12
f 46/52/130 50/56/131 38/44/132
s 13
f 49/55/133 54/60/134 39/45/135
s 14
f 55/61/136 45/51/137 37/43/138
s 15
f 59/65/139 57/63/140 41/48/141
s 16
f 57/63/142 62/68/143 41/48/144
s 17
f 61/67/145 65/71/146 43/49/147
s 18
f 67/73/148 58/64/149 42/47/150
s 11
f 48/54/151 46/52/152 38/44/153
s 7
f 50/56/154 48/54/155 38/44/156
s 14
f 52/58/157 56/62/158 40/46/159
s 11
f 17/23/160 18/24/161 46/52/152 48/54/151 47/53/128 45/51/127
s 12
f 51/57/162 49/55/163 39/45/164
s 7
f 54/60/165 51/57/166 39/45/167
f 56/62/168 53/59/169 40/46/170
s 12
f 18/24/171 22/28/172 49/55/163 51/57/162 50/56/131 46/52/130
s 13
f 53/59/173 52/58/174 40/46/175
s 7
f 55/61/71 47/53/70 48/54/155 50/56/154 51/57/166 54/60/165 53/59/169 56/62/168
s 13
f 22/28/176 21/27/177 52/58/174 53/59/173 54/60/134 49/55/133
s 14
f 21/27/178 17/23/179 45/51/137 55/61/136 56/62/158 52/58/157
s 16
f 63/69/180 61/67/181 43/49/182
s 9
f 42/47/183 60/66/184 67/73/185
s 15
f 58/64/186 60/66/187 42/47/188
s 9
f 65/71/189 63/69/190 43/49/191
s 18
f 64/70/192 68/74/193 44/50/194
s 15
f 19/25/195 20/26/196 57/63/140 59/65/139 60/66/187 58/64/186
s 16
f 20/26/197 24/30/198 61/67/181 63/69/180 62/68/143 57/63/142
s 17
f 66/72/199 64/70/200 44/50/201
s 9
f 68/74/202 66/72/203 44/50/204
f 67/73/185 60/66/184 59/65/77 62/68/76 63/69/190 65/71/189 66/72/203 68/74/202
s 17
f 24/30/205 23/29/206 64/70/200 66/72/199 65/71/146 61/67/145
s 18
f 23/29/207 19/25/208 58/64/149 67/73/148 68/74/193 64/70/192
s 2
f 7/7/12 8/8/11 70/76/209 69/75/210
s 3
f 8/8/18 2/10/17 71/77/211 70/76/212
s 1
f 2/10/2 1/9/1 72/78/213 71/77/214
s 4
f 1/9/22 7/7/21 69/75/215 72/78/216
